# xmcd CD database file
# Copyright (C) 1997 Ti Kan
#
# Track frame offsets:
#  150
#  11778
#  25428
#  42318
#  64513
#  79173
#  92475
#  109088
#  125818
#  139333
#  153685
#  173190
#
# Disc length: 2510 seconds
#
# Revision: 1
# Processed by: cddbd v1.4b41PL1 Copyright (c) Steve Scherf et al.
# Submitted via: CDWizzard Release:4.24
#
DISCID=a409cc0c
DTITLE=Nunn, Gary P. - For Old Times Sake
DYEAR=1900
DGENRE=
TTITLE0=Cuttin' a Rug (Til the Cows Come Home)
TTITLE1=If You Don't Believe I Love You (Ask My Wife)
TTITLE2=Cut and Putt
TTITLE3=Nine Cents Change
TTITLE4=The Chili Song
TTITLE5=Pickup Truck Texas
TTITLE6=For Old Times Sake
TTITLE7=The Domino Song
TTITLE8=I Feel a Party Coming On
TTITLE9=Gracias Por Esse
TTITLE10=Uncle Bud
TTITLE11=The Reggae Armadillo (A.O.)
EXTD=
EXTT0=
EXTT1=
EXTT2=
EXTT3=
EXTT4=
EXTT5=
EXTT6=
EXTT7=
EXTT8=
EXTT9=
EXTT10=
EXTT11=
PLAYORDER=
